<svg width="133" height="36" viewBox="0 0 133 36" fill="none" xmlns="http://www.w3.org/2000/svg">
<path fill-rule="evenodd" clip-rule="evenodd" d="M31.6617 8.76596L31.9137 9.21596C32.231 9.7628 32.3986 10.3837 32.3997 11.0159V24.9658C32.3945 25.5975 32.2271 26.2173 31.9137 26.7658L31.6437 27.2158C31.3354 27.7667 30.8806 28.2214 30.3298 28.5298L18.2518 35.5137C17.7049 35.8309 17.0841 35.9985 16.4518 35.9997H15.9478C15.3147 36.0056 14.6921 35.8375 14.1478 35.5137L2.05198 28.5478C1.51286 28.2241 1.06161 27.7729 0.737996 27.2338L0.485998 26.7838C0.168743 26.2368 0.0011239 25.6161 0 24.9838V11.0339C0.0011239 10.4017 0.168743 9.7808 0.485998 9.23396L0.737996 8.78396C1.05345 8.23852 1.50654 7.78536 2.05198 7.46996L14.1298 0.485998C14.6768 0.16876 15.2976 0.00114146 15.9298 0H16.4518C17.0841 0.00114146 17.7049 0.16876 18.2518 0.485998L30.3298 7.45196C30.8783 7.76946 31.3367 8.22174 31.6617 8.76596ZM16.4518 3.59989H15.9298L5.39997 9.68387L16.1998 15.9117L26.9998 9.68387L16.4518 3.59989ZM28.5297 25.4159L17.9998 31.4998V19.0439L28.7997 12.798V24.9659L28.5297 25.4159ZM79.3388 26.64H75.6063V6.94097H79.3388V26.64ZM45.6585 27.0622H49.8316V19.9084H51.646L56.0783 27.0622H60.5365L55.6377 19.1827C57.815 18.5347 59.4479 17.0572 59.4479 14.2579V14.1542C59.4479 10.3181 56.6745 8.52962 52.294 8.52962H45.6585V27.0622ZM49.8316 17.0572V11.7437H52.1903C54.2121 11.7437 55.3526 12.3917 55.3526 14.2838V14.3875C55.3526 16.176 54.2899 17.0572 52.1903 17.0572H49.8316ZM67.3143 26.9244C71.0208 26.9244 73.3536 25.2915 73.7942 22.3625H70.2432C70.0099 23.503 69.1546 24.2547 67.418 24.2547C65.3703 24.2547 64.1521 22.9587 64.0484 20.7037H73.8202V19.6669C73.8202 14.8199 70.7098 12.7723 67.2106 12.7723C63.2708 12.7723 60.2382 15.5456 60.2382 19.8224V20.0297C60.2382 24.3584 63.2189 26.9244 67.3143 26.9244ZM64.1002 18.3968C64.3853 16.4787 65.5258 15.3642 67.2106 15.3642C68.9991 15.3642 70.0359 16.3491 70.1655 18.3968H64.1002ZM86.4988 26.9255C88.7282 26.9255 90.1014 25.8887 90.8012 24.515V26.6404H94.5338V13.0844H90.8012V21.0417C90.8012 23.0376 89.557 24.0225 87.9766 24.0225C86.3697 24.0225 85.6173 23.1412 85.6173 21.3009V13.0844H81.8852V21.8193C81.8852 25.3703 83.855 26.9255 86.4988 26.9255ZM100.841 26.6393H97.0819V13.0833H100.841V15.1568C101.514 13.8868 102.966 12.7723 104.988 12.7723C106.776 12.7723 108.124 13.5239 108.772 15.1309C109.861 13.498 111.623 12.7723 113.334 12.7723C115.848 12.7723 117.792 14.3533 117.792 17.9562V26.6393H114.06V18.3709C114.06 16.6342 113.282 15.8566 111.934 15.8566C110.483 15.8566 109.317 16.7898 109.317 18.6301V26.6393H105.584V18.3709C105.584 16.6342 104.781 15.8566 103.458 15.8566C102.007 15.8566 100.841 16.7898 100.841 18.6301V26.6393ZM126.471 26.9244C130.178 26.9244 132.511 25.2915 132.951 22.3625H129.4C129.166 23.503 128.311 24.2547 126.574 24.2547C124.527 24.2547 123.309 22.9587 123.205 20.7037H132.977V19.6669C132.977 14.8199 129.866 12.7723 126.367 12.7723C122.427 12.7723 119.394 15.5456 119.394 19.8224V20.0297C119.394 24.3584 122.375 26.9244 126.471 26.9244ZM123.257 18.3968C123.542 16.4787 124.683 15.3642 126.367 15.3642C128.156 15.3642 129.193 16.3491 129.322 18.3968H123.257Z" fill="#0C0805"/>
</svg>
