<svg width="70" height="36" viewBox="0 0 70 36" fill="none" xmlns="http://www.w3.org/2000/svg">
<g clip-path="url(#clip0_0_31)">
<path d="M67.2446 17.0811L67.2075 17.1183C67.4677 16.4121 67.988 16.1519 68.434 16.1519C69.0659 16.1519 69.6234 16.6351 69.6234 17.3413C69.6234 17.49 69.6234 17.6758 69.5491 17.8988C68.2482 21.244 65.4977 22.9537 62.8216 23.2139C61.5951 25.2953 59.588 26.8192 56.726 26.8192C52.6375 26.8192 50.8163 23.5856 50.8163 20.0546C50.8163 15.7059 53.5668 10.874 58.1756 10.874C59.1791 10.874 60.034 11.0971 60.7402 11.3944C62.8216 12.1749 64.1597 14.8882 64.1597 17.7873C64.1597 18.7165 64.0853 19.6457 63.8623 20.5378C65.2376 20.0546 66.5384 18.9395 67.2446 17.0811ZM59.4765 13.9218V13.8847C58.6588 13.8847 58.1756 14.9625 58.1756 16.2634C58.1756 18.159 59.2163 19.9059 60.8517 20.5378C61.1119 19.7201 61.2234 18.7909 61.2234 17.713C61.2234 15.6316 60.5915 13.9218 59.4765 13.9218ZM56.7632 24.1059C57.8039 24.1059 58.8446 23.6599 59.6623 22.7307C57.2464 21.6528 55.7225 19.1254 55.7225 16.7094C55.7225 15.8917 55.8712 15.0369 56.0942 14.2935C54.6075 15.5201 53.7526 17.936 53.7526 20.0546C53.7526 22.805 55.0535 24.1059 56.7632 24.1059Z" fill="white"/>
<path d="M51.3902 17.0813L51.353 17.1185C51.6132 16.4123 52.0592 16.115 52.5052 16.115C53.1371 16.115 53.7689 16.6725 53.7689 17.3787C53.7689 17.5645 53.7318 17.7132 53.6574 17.899C52.2079 21.43 50.0521 25.5557 46.5955 27.9716L46.5212 28.715C46.1123 33.1752 43.8451 35.9999 40.9831 35.9999C38.8273 35.9999 37.5636 34.5132 37.5636 32.7663C37.5636 29.607 40.7972 28.4548 43.8079 26.5221C43.8822 25.7415 43.9194 24.8495 43.9565 23.8459C42.4698 25.4813 40.8716 26.1504 39.4592 26.1504C36.6344 26.1504 34.33 23.8459 34.33 20.315C34.33 14.8884 37.8981 11.3203 41.8751 11.3203H41.9123C44.6256 11.3203 47.5247 12.7698 47.5247 15.3716C47.5247 16.2265 47.153 20.8725 46.8557 24.4778C48.8627 22.5822 50.5353 19.4973 51.3902 17.0813ZM39.868 23.4743C41.2433 23.4743 43.1017 22.6194 44.2539 18.4194C44.4397 17.4902 44.5512 16.6725 44.5141 15.7061C44.2911 14.7026 43.4362 14.1079 42.2096 14.1079C39.6822 14.1079 37.2663 16.5238 37.2663 20.2035C37.2663 22.4336 38.307 23.4743 39.868 23.4743ZM41.2804 33.2867H41.3176C42.0981 33.2867 42.953 32.7663 43.5105 29.4212C41.8751 30.3875 40.3512 31.3539 40.3512 32.5061C40.3512 32.9893 40.7229 33.2867 41.2804 33.2867Z" fill="white"/>
<path d="M34.9822 17.0811L34.9451 17.1183C35.2052 16.4121 35.7256 16.1519 36.1716 16.1519C36.8035 16.1519 37.361 16.6351 37.361 17.3413C37.361 17.49 37.361 17.6758 37.2867 17.8988C35.9858 21.244 33.2353 22.9537 30.5592 23.2139C29.3327 25.2953 27.3256 26.8192 24.4636 26.8192C20.3751 26.8192 18.5539 23.5856 18.5539 20.0546C18.5539 15.7059 21.3043 10.874 25.9132 10.874C26.9167 10.874 27.7716 11.0971 28.4778 11.3944C30.5592 12.1749 31.8973 14.8882 31.8973 17.7873C31.8973 18.7165 31.8229 19.6457 31.5999 20.5378C32.9752 20.0546 34.276 18.9395 34.9822 17.0811ZM27.2141 13.9218V13.8847C26.3964 13.8847 25.9132 14.9625 25.9132 16.2634C25.9132 18.159 26.9539 19.9059 28.5893 20.5378C28.8495 19.7201 28.961 18.7909 28.961 17.713C28.961 15.6316 28.3291 13.9218 27.2141 13.9218ZM24.5008 24.1059C25.5415 24.1059 26.5822 23.6599 27.3999 22.7307C24.984 21.6528 23.4601 19.1254 23.4601 16.7094C23.4601 15.8917 23.6088 15.0369 23.8318 14.2935C22.3451 15.5201 21.4902 17.936 21.4902 20.0546C21.4902 22.805 22.7911 24.1059 24.5008 24.1059Z" fill="white"/>
<path d="M20.4429 15.9085C19.9225 15.9085 19.4765 16.1687 19.1791 16.8749C18.2128 19.328 16.2056 23.4909 14.1613 23.4909C12.8741 23.4909 11.878 23.1998 10.8714 22.9056C9.84348 22.6052 8.80467 22.3015 7.43378 22.3015C6.95058 22.3015 6.28154 22.3759 5.64967 22.4874C7.55325 19.8916 8.26439 16.7479 8.95347 10.8056C7.65601 10.723 6.6006 10.4833 5.83132 10.2412C5.00967 17.7777 4.07661 20.6513 0.669037 23.4909C0.22301 23.8626 0 24.383 0 24.9034C0 25.7211 0.706212 26.4273 1.59827 26.4273C1.89562 26.4273 2.23013 26.3158 2.56465 26.1671C4.46027 25.3122 5.6125 25.0892 7.02492 25.0892C7.92309 25.0892 8.99783 25.3461 10.1485 25.621C11.4739 25.9378 12.9 26.2786 14.2729 26.2786C17.2835 26.2786 19.2535 23.3423 21.4464 17.6554C21.558 17.4696 21.5951 17.2466 21.5951 17.0607C21.5951 16.3545 21.0376 15.9085 20.4429 15.9085Z" fill="white"/>
<path fill-rule="evenodd" clip-rule="evenodd" d="M6.01991 8.70287C6.693 8.93784 7.74382 9.2114 9.10625 9.29233L9.32926 9.29222C13.5294 9.29222 16.2799 6.6904 16.2799 3.56821C16.2799 1.56109 14.7188 0 12.5258 0C9.58944 0 7.54516 2.00712 6.50443 5.98419C5.20352 5.27798 4.31147 4.01424 3.86544 2.41598C3.64242 1.63543 3.15923 1.15223 2.49018 1.15223C1.67247 1.15223 1.1521 1.78411 1.1521 2.63899C1.1521 5.16648 3.12206 7.58245 6.02123 8.69752L6.01991 8.70287ZM9.55227 6.57889C10.1098 4.01424 11.0019 2.78767 12.1913 2.78767C12.8232 2.78767 13.232 3.15936 13.232 3.8284C13.232 5.05497 11.9311 6.50455 9.55227 6.57889Z" fill="white"/>
</g>
<defs>
<clipPath id="clip0_0_31">
<rect width="70" height="36" fill="white"/>
</clipPath>
</defs>
</svg>
