<svg width="135" height="23" viewBox="0 0 135 23" fill="none" xmlns="http://www.w3.org/2000/svg">
<path fill-rule="evenodd" clip-rule="evenodd" d="M36.0756 0L24.5644 22.5034H13.7521L18.5695 13.177H18.3534C14.379 18.3362 8.44914 21.7326 0 22.5034V13.3061C0 13.3061 5.40512 12.9868 8.58263 9.64613H0V0.000177499H9.64595V7.93383L9.86245 7.93295L13.8042 0.000177499H21.0991V7.88353L21.3156 7.88318L25.4052 0H36.0756Z" fill="#0C0805"/>
<path d="M98.8478 20.0195H101.954V2.18783H98.8478V20.0195Z" fill="#0C0805"/>
<path fill-rule="evenodd" clip-rule="evenodd" d="M81.7214 19.8374C82.3965 20.1181 83.0831 20.2585 83.7811 20.2585C84.9341 20.2585 85.9659 19.9778 86.8763 19.4163C87.7865 18.855 88.4921 18.0813 88.9928 17.095C89.4935 16.1012 89.7438 14.9746 89.7438 13.7152C89.7438 12.4559 89.4859 11.3294 88.9701 10.3356C88.4541 9.34179 87.7373 8.57177 86.8193 8.02555C85.9014 7.47176 84.8582 7.19866 83.6899 7.20623C82.9466 7.20623 82.2335 7.35038 81.5506 7.63866C80.8679 7.92694 80.2989 8.3366 79.8437 8.86764C79.8086 8.90807 79.7745 8.9489 79.7413 8.99015V2.19927H76.6234V20.0196H79.7186L79.7123 18.3548C79.7923 18.4529 79.878 18.5488 79.9689 18.6426C80.4619 19.1509 81.0462 19.5491 81.7214 19.8374ZM84.9076 16.9585C84.3993 17.2695 83.8189 17.425 83.1665 17.425C82.5216 17.425 81.9299 17.2656 81.3913 16.9471C80.8526 16.6208 80.4241 16.1771 80.1054 15.6156C79.7943 15.0543 79.6388 14.417 79.6388 13.7039C79.6313 12.9908 79.783 12.3535 80.094 11.7922C80.4127 11.2232 80.8412 10.7832 81.38 10.4721C81.9185 10.1535 82.5141 9.998 83.1665 10.0056C83.8189 9.998 84.3993 10.1497 84.9076 10.4608C85.4234 10.7642 85.8179 11.2004 86.091 11.7694C86.3717 12.3308 86.5121 12.9756 86.5121 13.7039C86.5121 14.4322 86.3717 15.0771 86.091 15.6384C85.8179 16.1999 85.4234 16.6398 84.9076 16.9585Z" fill="#0C0805"/>
<path d="M40.5761 3.26892H44.1265L47.3025 14.8676L50.6811 3.26892H53.6398L57.304 14.6349L60.3537 3.26892H63.6082L58.8061 20.0195H55.745L52.019 8.91586L48.5987 20.0195H45.5035L40.5761 3.26892Z" fill="#0C0805"/>
<path fill-rule="evenodd" clip-rule="evenodd" d="M68.8516 20.3153C67.6149 20.3229 66.4997 20.0498 65.5059 19.496C64.5197 18.9346 63.7422 18.157 63.1731 17.1632C62.6117 16.1694 62.3311 15.0353 62.3311 13.7607C62.3311 12.5241 62.6194 11.4052 63.196 10.4038C63.7724 9.40242 64.5538 8.62103 65.5401 8.05964C66.5263 7.49826 67.6262 7.21757 68.8401 7.21757C70.2056 7.21757 71.4004 7.52101 72.4246 8.12792C73.4564 8.73482 74.2264 9.59587 74.7347 10.7111C75.2505 11.8187 75.4364 13.0893 75.2923 14.5232H65.5449C65.5722 15.0944 65.7147 15.6141 65.9725 16.0822C66.2608 16.598 66.6628 17.0001 67.1787 17.2883C67.6946 17.5766 68.2711 17.7208 68.9084 17.7208C69.3939 17.7132 69.8453 17.6298 70.2625 17.4705C70.6798 17.3036 71.0325 17.0798 71.3208 16.799C71.6167 16.5184 71.8254 16.1998 71.9468 15.8433H75.2013C75.004 16.7156 74.6095 17.4933 74.0178 18.176C73.426 18.8512 72.6826 19.3784 71.7874 19.7577C70.8922 20.137 69.9136 20.3229 68.8516 20.3153ZM65.9839 11.3938C65.8021 11.7109 65.6761 12.0522 65.6059 12.418H72.0673C72.0204 11.9559 71.8778 11.5349 71.6395 11.1549C71.3663 10.7073 70.9946 10.3621 70.5243 10.1193C70.054 9.86898 69.5229 9.74381 68.9312 9.74381C68.3015 9.74381 67.7288 9.88794 67.2128 10.1762C66.697 10.4645 66.2873 10.8704 65.9839 11.3938Z" fill="#0C0805"/>
<path d="M92.0315 7.47932C92.0315 6.46276 92.2628 5.55998 92.7256 4.771C93.1883 3.97445 93.837 3.35616 94.6715 2.91615C95.5135 2.46856 96.496 2.23718 97.6187 2.22201V4.98721C97.0952 4.9948 96.6477 5.1048 96.276 5.31722C95.9118 5.52205 95.6312 5.82171 95.4339 6.21619C95.2523 6.57937 95.1543 7.00041 95.14 7.47932H97.5504V10.108H95.1381V20.0195H92.0315V10.108H90.0287V7.47932H92.0315Z" fill="#0C0805"/>
<path fill-rule="evenodd" clip-rule="evenodd" d="M109.851 20.2925C108.584 20.2925 107.45 20.0156 106.449 19.4619C105.455 18.9004 104.674 18.1267 104.105 17.1404C103.543 16.1466 103.262 15.0201 103.262 13.7606C103.262 12.4938 103.543 11.3634 104.105 10.3696C104.674 9.36822 105.455 8.59063 106.449 8.03683C107.45 7.48303 108.584 7.20612 109.851 7.20612C111.126 7.20612 112.264 7.48303 113.265 8.03683C114.274 8.59063 115.059 9.36443 115.621 10.3582C116.182 11.352 116.466 12.4862 116.474 13.7606C116.466 15.0201 116.182 16.1466 115.621 17.1404C115.067 18.1267 114.285 18.9004 113.276 19.4619C112.267 20.0156 111.126 20.2925 109.851 20.2925ZM109.851 17.4363C110.519 17.4363 111.111 17.2845 111.626 16.9811C112.142 16.6701 112.54 16.2376 112.821 15.6838C113.102 15.1225 113.242 14.4814 113.242 13.7606C113.242 13.0324 113.102 12.3876 112.821 11.8262C112.54 11.2648 112.142 10.8324 111.626 10.5289C111.111 10.2179 110.519 10.0624 109.851 10.0624C109.191 10.0624 108.603 10.2179 108.087 10.5289C107.579 10.8324 107.185 11.2648 106.904 11.8262C106.623 12.3876 106.487 13.0324 106.494 13.7606C106.494 14.4814 106.635 15.1225 106.915 15.6838C107.204 16.2376 107.598 16.6701 108.099 16.9811C108.607 17.2845 109.191 17.4363 109.851 17.4363Z" fill="#0C0805"/>
<path d="M119.831 7.4793H116.372L120.116 20.0195H123.142L125.605 12.0101L128.263 20.0195H131.244L135 7.4793H131.871L129.74 15.2848L127.386 7.4793H124.36L122.017 15.4567L119.831 7.4793Z" fill="#0C0805"/>
</svg>
