<svg width="116" height="19" viewBox="0 0 116 19" fill="none" xmlns="http://www.w3.org/2000/svg">
<g clip-path="url(#clip0_10209_86510)">
<path d="M9.0709 0.612345C9.41464 -0.204116 10.5854 -0.204115 10.9291 0.612347L12.9579 5.43125C13.1029 5.77545 13.4306 6.01062 13.8067 6.04041L19.0727 6.45749C19.9649 6.52816 20.3267 7.62815 19.6469 8.20342L15.6348 11.5987C15.3483 11.8412 15.223 12.2218 15.3106 12.5844L16.5364 17.661C16.744 18.5212 15.7969 19.201 15.033 18.7402L10.5246 16.0196C10.2025 15.8253 9.79752 15.8253 9.4755 16.0196L4.967 18.7402C4.20312 19.201 3.25596 18.5212 3.46364 17.661L4.68943 12.5844C4.77699 12.2218 4.65183 11.8412 4.36526 11.5987L0.353063 8.20342C-0.326718 7.62815 0.0350679 6.52816 0.927293 6.45749L6.19337 6.04041C6.56951 6.01062 6.89717 5.77545 7.04208 5.43125L9.0709 0.612345Z" fill="#0C0805"/>
<path d="M33.0709 0.612345C33.4146 -0.204116 34.5854 -0.204115 34.9291 0.612347L36.9579 5.43125C37.1029 5.77545 37.4306 6.01062 37.8067 6.04041L43.0727 6.45749C43.9649 6.52816 44.3267 7.62815 43.6469 8.20342L39.6348 11.5987C39.3482 11.8412 39.223 12.2218 39.3106 12.5844L40.5364 17.661C40.744 18.5212 39.7969 19.201 39.033 18.7402L34.5245 16.0196C34.2025 15.8253 33.7975 15.8253 33.4755 16.0196L28.967 18.7402C28.2031 19.201 27.256 18.5212 27.4636 17.661L28.6894 12.5844C28.777 12.2218 28.6518 11.8412 28.3653 11.5987L24.3531 8.20342C23.6733 7.62815 24.0351 6.52816 24.9273 6.45749L30.1934 6.04041C30.5695 6.01062 30.8972 5.77545 31.0421 5.43125L33.0709 0.612345Z" fill="#0C0805"/>
<path d="M57.0709 0.612345C57.4147 -0.204116 58.5854 -0.204115 58.9292 0.612347L60.9579 5.43125C61.1029 5.77545 61.4306 6.01062 61.8067 6.04041L67.0727 6.45749C67.9649 6.52816 68.3267 7.62815 67.6469 8.20342L63.6348 11.5987C63.3483 11.8412 63.223 12.2218 63.3106 12.5844L64.5364 17.661C64.744 18.5212 63.7969 19.201 63.033 18.7402L58.5246 16.0196C58.2025 15.8253 57.7975 15.8253 57.4755 16.0196L52.967 18.7402C52.2031 19.201 51.256 18.5212 51.4636 17.661L52.6894 12.5844C52.777 12.2218 52.6518 11.8412 52.3653 11.5987L48.3531 8.20342C47.6733 7.62815 48.0351 6.52816 48.9273 6.45749L54.1934 6.04041C54.5695 6.01062 54.8972 5.77545 55.0421 5.43125L57.0709 0.612345Z" fill="#0C0805"/>
<path d="M81.0709 0.612345C81.4146 -0.204116 82.5854 -0.204115 82.9291 0.612347L84.9579 5.43125C85.1029 5.77545 85.4306 6.01062 85.8067 6.04041L91.0727 6.45749C91.9649 6.52816 92.3267 7.62815 91.6469 8.20342L87.6348 11.5987C87.3483 11.8412 87.223 12.2218 87.3106 12.5844L88.5364 17.661C88.744 18.5212 87.7969 19.201 87.033 18.7402L82.5246 16.0196C82.2025 15.8253 81.7975 15.8253 81.4755 16.0196L76.967 18.7402C76.2031 19.201 75.256 18.5212 75.4636 17.661L76.6894 12.5844C76.777 12.2218 76.6518 11.8412 76.3653 11.5987L72.3531 8.20342C71.6733 7.62815 72.0351 6.52816 72.9273 6.45749L78.1934 6.04041C78.5695 6.01062 78.8972 5.77545 79.0421 5.43125L81.0709 0.612345Z" fill="#0C0805"/>
<path d="M105.071 0.612345C105.415 -0.204116 106.585 -0.204115 106.929 0.612347L108.958 5.43125C109.103 5.77545 109.431 6.01062 109.807 6.04041L115.073 6.45749C115.965 6.52816 116.327 7.62815 115.647 8.20342L111.635 11.5987C111.348 11.8412 111.223 12.2218 111.311 12.5844L112.536 17.661C112.744 18.5212 111.797 19.201 111.033 18.7402L106.525 16.0196C106.203 15.8253 105.798 15.8253 105.476 16.0196L100.967 18.7402C100.203 19.201 99.256 18.5212 99.4637 17.661L100.689 12.5844C100.777 12.2218 100.652 11.8412 100.365 11.5987L96.3531 8.20342C95.6733 7.62815 96.0351 6.52816 96.9273 6.45749L102.193 6.04041C102.57 6.01062 102.897 5.77545 103.042 5.43125L105.071 0.612345Z" fill="#0C0805"/>
</g>
<defs>
<clipPath id="clip0_10209_86510">
<rect width="116" height="18.8889" fill="white"/>
</clipPath>
</defs>
</svg>
